# xmcd
#
# Track frame offsets:
#	150
#	23305
#	51558
#	68121
#	86962
#	120555
#	138038
#	160451
#	189338
#	207491
#	234462
#	260490
#
# Disc length: 4064 seconds
#
# Revision: 6
# Processed by: cddbd v1.5.1PL0 Copyright (c) Steve Scherf et al.
# Submitted via: EasyCDDAExtractor 6.2.0.3
#
DISCID=a50fde0c
DTITLE=Alvin Lee - Keep On Rockin  ( 2 CD Pack ) CD 1
DYEAR=1997
DGENRE=Blues
TTITLE0=Keep On Rockin'
TTITLE1=Long Legs
TTITLE2=I Hear You Knockin'
TTITLE3=Ain't Nobody's Business
TTITLE4=The Bluest Blues
TTITLE5=Boogie All Day
TTITLE6=My Baby's Come Back To Me
TTITLE7=Take It Easy
TTITLE8=Play It Like It Used To Be
TTITLE9=Give Me Your Love
TTITLE10=I Don't Give A Damn
TTITLE11=I Want You (She's So Heavy)
EXTD=Seagull 111102-SG\nSeagull Music Scandinavia as, Vettre, Norway\nAlvin Le
EXTD=e, guitar, vocals and drums\nSteve Gould: bass and vocals\nSteve Grant: bass,
EXTD=vocals and keys\nAlan Young: drums\nGuests on vol 1:\nJoe Brown, vocals and 
EXTD=plectrum on 3, 6\nSam Brown, vocals on 2, 10\nGeorge Harrison: slide guit
EXTD=ar on 5, 7\nDeena Payne: vocals on 2, 10\nTim Hinkley: Hammond organ on 5
EXTD=, 11\nTim Hinkley: piano on 9
EXTT0=(Alvin Lee)
EXTT1=(Alvin Lee)
EXTT2=(King/Bartholomew)
EXTT3=(Alvin Lee/Steve Grant)
EXTT4=(Alvin Lee)
EXTT5=(Alvin Lee)
EXTT6=(Alvin Lee)
EXTT7=(Alvin Lee)
EXTT8=(Alvin Lee/Tim Hinley)
EXTT9=(Alvin Lee/Steve Gould)
EXTT10=(Alvin Lee)
EXTT11=(Lennon/McCartney)
PLAYORDER=
